<?xml version="1.0" encoding="us-ascii" standalone="no"?><svg xmlns="http://www.w3.org/2000/svg" xmlns:xlink="http://www.w3.org/1999/xlink" contentStyleType="text/css" height="737px" preserveAspectRatio="none" style="width:1504px;height:737px;background:#FFFFFF;" version="1.1" viewBox="0 0 1504 737" width="1504px" zoomAndPan="magnify"><defs/><g><!--cluster presentation--><g id="cluster_presentation"><path d="M537.5,6 L629.5,6 A3.75,3.75 0 0 1 632,8.5 L639,28.4883 L1339.5,28.4883 A2.5,2.5 0 0 1 1342,30.9883 L1342,151.96 A2.5,2.5 0 0 1 1339.5,154.46 L537.5,154.46 A2.5,2.5 0 0 1 535,151.96 L535,8.5 A2.5,2.5 0 0 1 537.5,6 " fill="#ADD8E6" style="stroke:#000000;stroke-width:1.5;"/><line style="stroke:#000000;stroke-width:1.5;" x1="535" x2="639" y1="28.4883" y2="28.4883"/><text fill="#000000" font-family="sans-serif" font-size="14" font-weight="bold" lengthAdjust="spacing" textLength="91" x="539" y="21.5352">presentation</text></g><!--cluster application--><g id="cluster_application"><path d="M8.5,203.46 L89.5,203.46 A3.75,3.75 0 0 1 92,205.96 L99,225.9483 L1399.5,225.9483 A2.5,2.5 0 0 1 1402,228.4483 L1402,349.43 A2.5,2.5 0 0 1 1399.5,351.93 L8.5,351.93 A2.5,2.5 0 0 1 6,349.43 L6,205.96 A2.5,2.5 0 0 1 8.5,203.46 " fill="#90EE90" style="stroke:#000000;stroke-width:1.5;"/><line style="stroke:#000000;stroke-width:1.5;" x1="6" x2="99" y1="225.9483" y2="225.9483"/><text fill="#000000" font-family="sans-serif" font-size="14" font-weight="bold" lengthAdjust="spacing" textLength="80" x="10" y="218.9952">application</text></g><!--cluster domain--><g id="cluster_domain"><path d="M92.5,400.93 L147.5,400.93 A3.75,3.75 0 0 1 150,403.43 L157,423.4183 L1494.5,423.4183 A2.5,2.5 0 0 1 1497,425.9183 L1497,546.89 A2.5,2.5 0 0 1 1494.5,549.39 L92.5,549.39 A2.5,2.5 0 0 1 90,546.89 L90,403.43 A2.5,2.5 0 0 1 92.5,400.93 " fill="#FFB6C1" style="stroke:#000000;stroke-width:1.5;"/><line style="stroke:#000000;stroke-width:1.5;" x1="90" x2="157" y1="423.4183" y2="423.4183"/><text fill="#000000" font-family="sans-serif" font-size="14" font-weight="bold" lengthAdjust="spacing" textLength="54" x="94" y="416.4652">domain</text></g><!--cluster infrastructure--><g id="cluster_infrastructure"><path d="M659.5,598.39 L759.5,598.39 A3.75,3.75 0 0 1 762,600.89 L769,620.8783 L1414.5,620.8783 A2.5,2.5 0 0 1 1417,623.3783 L1417,727.87 A2.5,2.5 0 0 1 1414.5,730.37 L659.5,730.37 A2.5,2.5 0 0 1 657,727.87 L657,600.89 A2.5,2.5 0 0 1 659.5,598.39 " fill="#F5F5F5" style="stroke:#000000;stroke-width:1.5;"/><line style="stroke:#000000;stroke-width:1.5;" x1="657" x2="769" y1="620.8783" y2="620.8783"/><text fill="#000000" font-family="sans-serif" font-size="14" font-weight="bold" lengthAdjust="spacing" textLength="99" x="661" y="613.9252">infrastructure</text></g><!--class QuestPage--><g id="elem_QuestPage"><rect codeLine="4" fill="#F1F1F1" height="97.4648" id="QuestPage" rx="2.5" ry="2.5" style="stroke:#181818;stroke-width:0.5;" width="250" x="551" y="41"/><ellipse cx="589.4" cy="57" fill="#ADD1B2" rx="11" ry="11" style="stroke:#181818;stroke-width:1.0;"/><path d="M591.8731,63.1431 Q591.2921,63.4419 590.6529,63.5913 Q590.0138,63.7407 589.3082,63.7407 Q586.8014,63.7407 585.4815,62.0889 Q584.1617,60.437 584.1617,57.3159 Q584.1617,54.1865 585.4815,52.5347 Q586.8014,50.8828 589.3082,50.8828 Q590.0138,50.8828 590.6612,51.0322 Q591.3087,51.1816 591.8731,51.4805 L591.8731,54.2031 Q591.2423,53.6221 590.6488,53.3523 Q590.0553,53.0825 589.4244,53.0825 Q588.0797,53.0825 587.3949,54.1492 Q586.7101,55.2158 586.7101,57.3159 Q586.7101,59.4077 587.3949,60.4744 Q588.0797,61.541 589.4244,61.541 Q590.0553,61.541 590.6488,61.2712 Q591.2423,61.0015 591.8731,60.4204 Z " fill="#000000"/><text fill="#000000" font-family="sans-serif" font-size="14" lengthAdjust="spacing" textLength="73" x="608.6" y="62.291">QuestPage</text><rect fill="#FFFFFF" height="16.1328" style="stroke:#181818;stroke-width:1.0;stroke-dasharray:2.0,2.0;" width="91" x="713" y="38"/><text fill="#000000" font-family="sans-serif" font-size="12" font-style="italic" lengthAdjust="spacing" textLength="89" x="714" y="50.6016">StatelessWidget</text><line style="stroke:#181818;stroke-width:0.5;" x1="552" x2="800" y1="73" y2="73"/><ellipse cx="562" cy="86.7441" fill="none" rx="3" ry="3" style="stroke:#038048;stroke-width:1.0;"/><text fill="#000000" font-family="sans-serif" font-size="14" lengthAdjust="spacing" textLength="73" x="571" y="90.5352">int questId</text><rect fill="none" height="6" style="stroke:#C82930;stroke-width:1.0;" width="6" x="559" y="100.2324"/><text fill="#000000" font-family="sans-serif" font-size="14" lengthAdjust="spacing" textLength="224" x="571" y="107.0234">QuestApplicationService _service</text><line style="stroke:#181818;stroke-width:1.0;" x1="552" x2="800" y1="113.9766" y2="113.9766"/><ellipse cx="562" cy="127.7207" fill="#84BE84" rx="3" ry="3" style="stroke:#038048;stroke-width:1.0;"/><text fill="#000000" font-family="sans-serif" font-size="14" lengthAdjust="spacing" textLength="45" x="571" y="131.5117">build()</text></g><g id="elem_GMN4"><path d="M836,69.42 L836,85.73 L801.38,89.73 L836,93.73 L836,110.0411 A0,0 0 0 0 836,110.0411 L1326,110.0411 A0,0 0 0 0 1326,110.0411 L1326,79.42 L1316,69.42 L836,69.42 A0,0 0 0 0 836,69.42 " fill="#FEFFDD" style="stroke:#181818;stroke-width:0.5;"/><path d="M1316,69.42 L1316,79.42 L1326,79.42 L1316,69.42 " fill="#FEFFDD" style="stroke:#181818;stroke-width:0.5;"/><text fill="#000000" font-family="sans-serif" font-size="13" lengthAdjust="spacing" textLength="469" x="842" y="86.9884">&#12503;&#12524;&#12476;&#12531;&#12486;&#12540;&#12471;&#12519;&#12531;&#23652;&#12391;&#12354;&#12427;QuestPage&#12399;&#12450;&#12503;&#12522;&#12465;&#12540;&#12471;&#12519;&#12531;&#12469;&#12540;&#12499;&#12473;&#12434;&#20351;&#29992;&#12375;&#12390;</text><text fill="#000000" font-family="sans-serif" font-size="13" lengthAdjust="spacing" textLength="210" x="842" y="102.2989">DTO&#12434;&#21462;&#24471;&#12375;&#12289;&#30011;&#38754;&#12434;&#34920;&#31034;&#12375;&#12414;&#12377;&#12290;</text></g><!--class QuestApplicationService--><g id="elem_QuestApplicationService"><rect codeLine="36" fill="#F1F1F1" height="80.9766" id="QuestApplicationService" rx="2.5" ry="2.5" style="stroke:#181818;stroke-width:0.5;" width="282" x="674" y="246.71"/><ellipse cx="727.75" cy="262.71" fill="#ADD1B2" rx="11" ry="11" style="stroke:#181818;stroke-width:1.0;"/><path d="M730.2231,268.8531 Q729.6421,269.1519 729.0029,269.3013 Q728.3638,269.4507 727.6582,269.4507 Q725.1514,269.4507 723.8315,267.7989 Q722.5117,266.147 722.5117,263.0259 Q722.5117,259.8965 723.8315,258.2447 Q725.1514,256.5928 727.6582,256.5928 Q728.3638,256.5928 729.0112,256.7422 Q729.6587,256.8916 730.2231,257.1905 L730.2231,259.9131 Q729.5923,259.3321 728.9988,259.0623 Q728.4053,258.7925 727.7744,258.7925 Q726.4297,258.7925 725.7449,259.8592 Q725.0601,260.9258 725.0601,263.0259 Q725.0601,265.1177 725.7449,266.1844 Q726.4297,267.251 727.7744,267.251 Q728.4053,267.251 728.9988,266.9812 Q729.5923,266.7115 730.2231,266.1304 Z " fill="#000000"/><text fill="#000000" font-family="sans-serif" font-size="14" lengthAdjust="spacing" textLength="166" x="748.25" y="268.001">QuestApplicationService</text><line style="stroke:#181818;stroke-width:0.5;" x1="675" x2="955" y1="278.71" y2="278.71"/><line style="stroke:#181818;stroke-width:0.5;" x1="675" x2="955" y1="286.71" y2="286.71"/><ellipse cx="685" cy="300.4541" fill="#84BE84" rx="3" ry="3" style="stroke:#038048;stroke-width:1.0;"/><text fill="#000000" font-family="sans-serif" font-size="14" lengthAdjust="spacing" textLength="176" x="694" y="304.2452">QuestApplicationService()</text><ellipse cx="685" cy="316.9424" fill="#84BE84" rx="3" ry="3" style="stroke:#038048;stroke-width:1.0;"/><text fill="#000000" font-family="sans-serif" font-size="14" lengthAdjust="spacing" textLength="256" x="694" y="320.7334">Future&lt;Quest&gt; getQuest(int questId)</text></g><!--class QuestData--><g id="elem_QuestData"><rect codeLine="23" fill="#F1F1F1" height="97.4648" id="QuestData" rx="2.5" ry="2.5" style="stroke:#181818;stroke-width:0.5;" width="115" x="496.5" y="238.46"/><ellipse cx="516.9" cy="254.46" fill="#ADD1B2" rx="11" ry="11" style="stroke:#181818;stroke-width:1.0;"/><path d="M519.3731,260.6031 Q518.7921,260.9019 518.1529,261.0513 Q517.5138,261.2007 516.8082,261.2007 Q514.3014,261.2007 512.9815,259.5489 Q511.6617,257.897 511.6617,254.7759 Q511.6617,251.6465 512.9815,249.9947 Q514.3014,248.3428 516.8082,248.3428 Q517.5138,248.3428 518.1612,248.4922 Q518.8087,248.6416 519.3731,248.9405 L519.3731,251.6631 Q518.7423,251.0821 518.1488,250.8123 Q517.5553,250.5425 516.9244,250.5425 Q515.5797,250.5425 514.8949,251.6092 Q514.2101,252.6758 514.2101,254.7759 Q514.2101,256.8677 514.8949,257.9344 Q515.5797,259.001 516.9244,259.001 Q517.5553,259.001 518.1488,258.7312 Q518.7423,258.4615 519.3731,257.8804 Z " fill="#000000"/><text fill="#000000" font-family="sans-serif" font-size="14" lengthAdjust="spacing" textLength="71" x="532.1" y="259.751">QuestData</text><line style="stroke:#181818;stroke-width:0.5;" x1="497.5" x2="610.5" y1="270.46" y2="270.46"/><ellipse cx="507.5" cy="284.2041" fill="none" rx="3" ry="3" style="stroke:#038048;stroke-width:1.0;"/><text fill="#000000" font-family="sans-serif" font-size="14" lengthAdjust="spacing" textLength="35" x="516.5" y="287.9952">int id</text><ellipse cx="507.5" cy="300.6924" fill="none" rx="3" ry="3" style="stroke:#038048;stroke-width:1.0;"/><text fill="#000000" font-family="sans-serif" font-size="14" lengthAdjust="spacing" textLength="83" x="516.5" y="304.4834">String name</text><ellipse cx="507.5" cy="317.1807" fill="none" rx="3" ry="3" style="stroke:#038048;stroke-width:1.0;"/><text fill="#000000" font-family="sans-serif" font-size="14" lengthAdjust="spacing" textLength="89" x="516.5" y="320.9717">something ...</text><line style="stroke:#181818;stroke-width:0.5;" x1="497.5" x2="610.5" y1="327.9248" y2="327.9248"/></g><g id="elem_GMN12"><path d="M22,266.89 L22,307.5111 A0,0 0 0 0 22,307.5111 L462,307.5111 A0,0 0 0 0 462,307.5111 L462,291.2 L496.32,287.2 L462,283.2 L462,276.89 L452,266.89 L22,266.89 A0,0 0 0 0 22,266.89 " fill="#FEFFDD" style="stroke:#181818;stroke-width:0.5;"/><path d="M452,266.89 L452,276.89 L462,276.89 L452,266.89 " fill="#FEFFDD" style="stroke:#181818;stroke-width:0.5;"/><text fill="#000000" font-family="sans-serif" font-size="13" lengthAdjust="spacing" textLength="419" x="28" y="284.4584">DTO&#12391;&#12354;&#12427;QuestData&#12399;&#12289;&#30011;&#38754;&#12395;&#34920;&#31034;&#12377;&#12427;&#12383;&#12417;&#12398;&#12487;&#12540;&#12479;&#12434;&#20445;&#25345;&#12375;&#12414;&#12377;&#12290;</text><text fill="#000000" font-family="sans-serif" font-size="13" lengthAdjust="spacing" textLength="403" x="28" y="299.7689">&#34920;&#31034;&#29992;&#12289;&#26032;&#35215;&#20316;&#25104;&#29992;&#12289;&#32232;&#38598;&#29992;&#12394;&#12393;&#29992;&#36884;&#12395;&#21512;&#12431;&#12379;&#12390;&#26032;&#12383;&#12395;&#20316;&#25104;&#12375;&#12414;&#12377;&#12290;</text></g><g id="elem_GMN17"><path d="M991.5,259.23 L991.5,283.2 L956.35,287.2 L991.5,291.2 L991.5,315.1616 A0,0 0 0 0 991.5,315.1616 L1386.5,315.1616 A0,0 0 0 0 1386.5,315.1616 L1386.5,269.23 L1376.5,259.23 L991.5,259.23 A0,0 0 0 0 991.5,259.23 " fill="#FEFFDD" style="stroke:#181818;stroke-width:0.5;"/><path d="M1376.5,259.23 L1376.5,269.23 L1386.5,269.23 L1376.5,259.23 " fill="#FEFFDD" style="stroke:#181818;stroke-width:0.5;"/><text fill="#000000" font-family="sans-serif" font-size="13" lengthAdjust="spacing" textLength="374" x="997.5" y="276.7984">&#12450;&#12503;&#12522;&#12465;&#12540;&#12471;&#12519;&#12531;&#12469;&#12540;&#12499;&#12473;&#12391;&#12354;&#12427;QuestApplicationService&#12399;&#12289;</text><text fill="#000000" font-family="sans-serif" font-size="13" lengthAdjust="spacing" textLength="286" x="997.5" y="292.1089">&#12522;&#12509;&#12472;&#12488;&#12522;&#12434;&#20351;&#29992;&#12375;&#12390;&#12489;&#12513;&#12452;&#12531;&#12514;&#12487;&#12523;&#12434;&#21462;&#24471;&#12375;&#12289;</text><text fill="#000000" font-family="sans-serif" font-size="13" lengthAdjust="spacing" textLength="301" x="997.5" y="307.4195">DTO&#12395;&#22793;&#25563;&#12375;&#12390;&#12503;&#12524;&#12476;&#12531;&#12486;&#12540;&#12471;&#12519;&#12531;&#23652;&#12408;&#36820;&#12375;&#12414;&#12377;&#12290;</text></g><!--class QuestRepository--><g id="elem_QuestRepository"><rect codeLine="53" fill="#F1F1F1" height="80.9766" id="QuestRepository" rx="2.5" ry="2.5" style="stroke:#181818;stroke-width:0.5;" width="300" x="565" y="444.17"/><ellipse cx="654.25" cy="460.17" fill="#B4A7E5" rx="11" ry="11" style="stroke:#181818;stroke-width:1.0;"/><path d="M650.6777,456.4351 L650.6777,454.2769 L658.0571,454.2769 L658.0571,456.4351 L655.5918,456.4351 L655.5918,464.5118 L658.0571,464.5118 L658.0571,466.67 L650.6777,466.67 L650.6777,464.5118 L653.1431,464.5118 L653.1431,456.4351 Z " fill="#000000"/><text fill="#000000" font-family="sans-serif" font-size="14" font-style="italic" lengthAdjust="spacing" textLength="113" x="674.75" y="465.461">QuestRepository</text><line style="stroke:#181818;stroke-width:0.5;" x1="566" x2="864" y1="476.17" y2="476.17"/><line style="stroke:#181818;stroke-width:0.5;" x1="566" x2="864" y1="484.17" y2="484.17"/><ellipse cx="576" cy="497.9141" fill="#84BE84" rx="3" ry="3" style="stroke:#038048;stroke-width:1.0;"/><text fill="#000000" font-family="sans-serif" font-size="14" font-style="italic" lengthAdjust="spacing" textLength="256" x="585" y="501.7052">Future&lt;Quest&gt; find(QuestId questId)</text><ellipse cx="576" cy="514.4024" fill="#84BE84" rx="3" ry="3" style="stroke:#038048;stroke-width:1.0;"/><text fill="#000000" font-family="sans-serif" font-size="14" font-style="italic" lengthAdjust="spacing" textLength="274" x="585" y="518.1934">Future&lt;Quest&gt; findAll(QuestId questId)</text></g><!--class Quest--><g id="elem_Quest"><rect codeLine="64" fill="#F1F1F1" height="97.4648" id="Quest" rx="2.5" ry="2.5" style="stroke:#181818;stroke-width:0.5;" width="147" x="900.5" y="435.93"/><ellipse cx="949.75" cy="451.93" fill="#ADD1B2" rx="11" ry="11" style="stroke:#181818;stroke-width:1.0;"/><path d="M952.2231,458.0731 Q951.6421,458.3719 951.0029,458.5213 Q950.3638,458.6707 949.6582,458.6707 Q947.1514,458.6707 945.8315,457.0189 Q944.5117,455.367 944.5117,452.2459 Q944.5117,449.1165 945.8315,447.4647 Q947.1514,445.8128 949.6582,445.8128 Q950.3638,445.8128 951.0112,445.9622 Q951.6587,446.1116 952.2231,446.4105 L952.2231,449.1331 Q951.5923,448.5521 950.9988,448.2823 Q950.4053,448.0125 949.7744,448.0125 Q948.4297,448.0125 947.7449,449.0792 Q947.0601,450.1458 947.0601,452.2459 Q947.0601,454.3377 947.7449,455.4044 Q948.4297,456.471 949.7744,456.471 Q950.4053,456.471 950.9988,456.2012 Q951.5923,455.9315 952.2231,455.3504 Z " fill="#000000"/><text fill="#000000" font-family="sans-serif" font-size="14" lengthAdjust="spacing" textLength="40" x="970.25" y="457.221">Quest</text><line style="stroke:#181818;stroke-width:0.5;" x1="901.5" x2="1046.5" y1="467.93" y2="467.93"/><ellipse cx="911.5" cy="481.6741" fill="none" rx="3" ry="3" style="stroke:#038048;stroke-width:1.0;"/><text fill="#000000" font-family="sans-serif" font-size="14" lengthAdjust="spacing" textLength="70" x="920.5" y="485.4652">QuestId id</text><ellipse cx="911.5" cy="498.1624" fill="none" rx="3" ry="3" style="stroke:#038048;stroke-width:1.0;"/><text fill="#000000" font-family="sans-serif" font-size="14" lengthAdjust="spacing" textLength="121" x="920.5" y="501.9534">QuestName name</text><ellipse cx="911.5" cy="514.6507" fill="none" rx="3" ry="3" style="stroke:#038048;stroke-width:1.0;"/><text fill="#000000" font-family="sans-serif" font-size="14" lengthAdjust="spacing" textLength="89" x="920.5" y="518.4417">something ...</text><line style="stroke:#181818;stroke-width:0.5;" x1="901.5" x2="1046.5" y1="525.3948" y2="525.3948"/></g><g id="elem_GMN25"><path d="M106,456.7 L106,512.6316 A0,0 0 0 0 106,512.6316 L530,512.6316 A0,0 0 0 0 530,512.6316 L530,488.66 L564.7,484.66 L530,480.66 L530,466.7 L520,456.7 L106,456.7 A0,0 0 0 0 106,456.7 " fill="#FEFFDD" style="stroke:#181818;stroke-width:0.5;"/><path d="M520,456.7 L520,466.7 L530,466.7 L520,456.7 " fill="#FEFFDD" style="stroke:#181818;stroke-width:0.5;"/><text fill="#000000" font-family="sans-serif" font-size="13" lengthAdjust="spacing" textLength="130" x="112" y="474.2684">QuestRepository&#12399;&#12289;</text><text fill="#000000" font-family="sans-serif" font-size="13" lengthAdjust="spacing" textLength="403" x="112" y="489.5789">&#12489;&#12513;&#12452;&#12531;&#12514;&#12487;&#12523;&#12434;&#21462;&#24471;&#12377;&#12427;&#12383;&#12417;&#12398;&#12522;&#12509;&#12472;&#12488;&#12522;&#12452;&#12531;&#12479;&#12540;&#12501;&#12455;&#12540;&#12473;&#12391;&#12377;&#12290;</text><text fill="#000000" font-family="sans-serif" font-size="13" lengthAdjust="spacing" textLength="312" x="112" y="504.8895">&#12522;&#12509;&#12472;&#12488;&#12522;&#12399;&#12452;&#12531;&#12501;&#12521;&#12473;&#12488;&#12521;&#12463;&#12481;&#12515;&#23652;&#12391;&#23455;&#35013;&#12375;&#12414;&#12377;&#12290;</text></g><g id="elem_GMN28"><path d="M1083,456.7 L1083,480.66 L1047.99,484.66 L1083,488.66 L1083,512.6316 A0,0 0 0 0 1083,512.6316 L1481,512.6316 A0,0 0 0 0 1481,512.6316 L1481,466.7 L1471,456.7 L1083,456.7 A0,0 0 0 0 1083,456.7 " fill="#FEFFDD" style="stroke:#181818;stroke-width:0.5;"/><path d="M1471,456.7 L1471,466.7 L1481,466.7 L1471,456.7 " fill="#FEFFDD" style="stroke:#181818;stroke-width:0.5;"/><text fill="#000000" font-family="sans-serif" font-size="13" lengthAdjust="spacing" textLength="193" x="1089" y="474.2684">&#12489;&#12513;&#12452;&#12531;&#12514;&#12487;&#12523;&#12391;&#12354;&#12427;Quest&#12399;&#12289;</text><text fill="#000000" font-family="sans-serif" font-size="13" lengthAdjust="spacing" textLength="377" x="1089" y="489.5789">&#12499;&#12472;&#12493;&#12473;&#12525;&#12472;&#12483;&#12463;&#65288;&#12496;&#12522;&#12487;&#12540;&#12471;&#12519;&#12531;&#12481;&#12455;&#12483;&#12463;&#31561;&#65289;&#12434;&#20445;&#25345;&#12375;&#12414;&#12377;&#12290;</text><text fill="#000000" font-family="sans-serif" font-size="13" lengthAdjust="spacing" textLength="312" x="1089" y="504.8895">&#12489;&#12513;&#12452;&#12531;&#12514;&#12487;&#12523;&#12399;&#12522;&#12509;&#12472;&#12488;&#12522;&#12434;&#20351;&#29992;&#12375;&#12390;&#21462;&#24471;&#12375;&#12414;&#12377;&#12290;</text></g><!--class FireStoreQuestRepository--><g id="elem_FireStoreQuestRepository"><rect codeLine="81" fill="#F1F1F1" height="80.9766" id="FireStoreQuestRepository" rx="2.5" ry="2.5" style="stroke:#181818;stroke-width:0.5;" width="305" x="672.5" y="633.39"/><ellipse cx="687.5" cy="649.39" fill="#ADD1B2" rx="11" ry="11" style="stroke:#181818;stroke-width:1.0;"/><path d="M689.9731,655.5331 Q689.3921,655.8319 688.7529,655.9813 Q688.1138,656.1307 687.4082,656.1307 Q684.9014,656.1307 683.5815,654.4789 Q682.2617,652.827 682.2617,649.7059 Q682.2617,646.5765 683.5815,644.9247 Q684.9014,643.2728 687.4082,643.2728 Q688.1138,643.2728 688.7612,643.4222 Q689.4087,643.5716 689.9731,643.8705 L689.9731,646.5931 Q689.3423,646.0121 688.7488,645.7423 Q688.1553,645.4725 687.5244,645.4725 Q686.1797,645.4725 685.4949,646.5392 Q684.8101,647.6058 684.8101,649.7059 Q684.8101,651.7977 685.4949,652.8644 Q686.1797,653.931 687.5244,653.931 Q688.1553,653.931 688.7488,653.6612 Q689.3423,653.3915 689.9731,652.8104 Z " fill="#000000"/><text fill="#000000" font-family="sans-serif" font-size="14" lengthAdjust="spacing" textLength="175" x="701.5" y="654.681">FireStoreQuestRepository</text><rect fill="#FFFFFF" height="16.1328" style="stroke:#181818;stroke-width:1.0;stroke-dasharray:2.0,2.0;" width="96" x="884.5" y="630.39"/><text fill="#000000" font-family="sans-serif" font-size="12" font-style="italic" lengthAdjust="spacing" textLength="94" x="885.5" y="642.9916">QuestRepository</text><line style="stroke:#181818;stroke-width:0.5;" x1="673.5" x2="976.5" y1="665.39" y2="665.39"/><line style="stroke:#181818;stroke-width:0.5;" x1="673.5" x2="976.5" y1="673.39" y2="673.39"/><ellipse cx="683.5" cy="687.1341" fill="#84BE84" rx="3" ry="3" style="stroke:#038048;stroke-width:1.0;"/><text fill="#000000" font-family="sans-serif" font-size="14" lengthAdjust="spacing" textLength="256" x="692.5" y="690.9252">Future&lt;Quest&gt; find(QuestId questId)</text><ellipse cx="683.5" cy="703.6224" fill="#84BE84" rx="3" ry="3" style="stroke:#038048;stroke-width:1.0;"/><text fill="#000000" font-family="sans-serif" font-size="14" lengthAdjust="spacing" textLength="274" x="692.5" y="707.4134">Future&lt;Quest&gt; findAll(QuestId questId)</text></g><g id="elem_GMN36"><path d="M1013,645.92 L1013,669.88 L977.95,673.88 L1013,677.88 L1013,701.8516 A0,0 0 0 0 1013,701.8516 L1401,701.8516 A0,0 0 0 0 1401,701.8516 L1401,655.92 L1391,645.92 L1013,645.92 A0,0 0 0 0 1013,645.92 " fill="#FEFFDD" style="stroke:#181818;stroke-width:0.5;"/><path d="M1391,645.92 L1391,655.92 L1401,655.92 L1391,645.92 " fill="#FEFFDD" style="stroke:#181818;stroke-width:0.5;"/><text fill="#000000" font-family="sans-serif" font-size="13" lengthAdjust="spacing" textLength="367" x="1019" y="663.4884">&#12452;&#12531;&#12501;&#12521;&#12473;&#12488;&#12521;&#12463;&#12481;&#12515;&#23652;&#12391;&#12354;&#12427;FireStoreQuestRepository&#12399;&#12289;</text><text fill="#000000" font-family="sans-serif" font-size="13" lengthAdjust="spacing" textLength="325" x="1019" y="678.7989">&#23455;&#38555;&#12395;&#12487;&#12540;&#12479;&#12505;&#12540;&#12473;&#12395;&#12450;&#12463;&#12475;&#12473;&#12375;&#12289;&#24773;&#22577;&#12434;&#21462;&#24471;&#12375;&#12414;&#12377;&#12290;</text><text fill="#000000" font-family="sans-serif" font-size="13" lengthAdjust="spacing" textLength="312" x="1019" y="694.1095">&#21462;&#24471;&#12375;&#12383;&#24773;&#22577;&#12434;&#12489;&#12513;&#12452;&#12531;&#12514;&#12487;&#12523;&#12395;&#22793;&#25563;&#12375;&#12390;&#36820;&#12375;&#12414;&#12377;&#12290;</text></g><!--link QuestPage to QuestApplicationService--><g id="link_QuestPage_QuestApplicationService"><path codeLine="18" d="M710.18,138.8 C733.65,171.8 760.9731,210.2201 783.0931,241.3301 " fill="none" id="QuestPage-to-QuestApplicationService" style="stroke:#181818;stroke-width:1.0;"/><polygon fill="#181818" points="786.57,246.22,784.6147,236.5672,783.6726,242.1451,778.0948,241.203,786.57,246.22" style="stroke:#181818;stroke-width:1.0;"/><text fill="#000000" font-family="sans-serif" font-size="13" lengthAdjust="spacing" textLength="112" x="742.33" y="184.0284">getQuest(questId)</text></g><!--link QuestPage to QuestData--><g id="link_QuestPage_QuestData"><path codeLine="19" d="M646,138.8 C627.16,168.98 606.1262,202.6796 587.2762,232.8896 " fill="none" id="QuestPage-to-QuestData" style="stroke:#181818;stroke-width:1.0;"/><polygon fill="#181818" points="584.1,237.98,592.2579,232.4619,586.7468,233.738,585.4707,228.227,584.1,237.98" style="stroke:#181818;stroke-width:1.0;"/><text fill="#000000" font-family="sans-serif" font-size="13" lengthAdjust="spacing" textLength="26" x="626.93" y="184.0284">&#20351;&#29992;</text></g><!--reverse link QuestData to QuestApplicationService--><g id="link_QuestData_QuestApplicationService"><path codeLine="34" d="M617.92,287.2 C636.47,287.2 651.89,287.2 673.71,287.2 " fill="none" id="QuestData-backto-QuestApplicationService" style="stroke:#181818;stroke-width:1.0;"/><polygon fill="#181818" points="611.92,287.2,620.92,291.2,616.92,287.2,620.92,283.2,611.92,287.2" style="stroke:#181818;stroke-width:1.0;"/><text fill="#000000" font-family="sans-serif" font-size="13" lengthAdjust="spacing" textLength="26" x="629.75" y="280.7684">&#29983;&#25104;</text></g><!--link QuestApplicationService to QuestRepository--><g id="link_QuestApplicationService_QuestRepository"><path codeLine="49" d="M783.54,327.82 C774.56,340.23 765.26,354.25 758,367.93 C745.18,392.07 736.3494,415.1719 728.8194,438.0019 " fill="none" id="QuestApplicationService-to-QuestRepository" style="stroke:#181818;stroke-width:1.0;"/><polygon fill="#181818" points="726.94,443.7,733.5578,436.4058,728.5062,438.9516,725.9604,433.9,726.94,443.7" style="stroke:#181818;stroke-width:1.0;"/><text fill="#000000" font-family="sans-serif" font-size="13" lengthAdjust="spacing" textLength="80" x="759" y="381.4984">find(questId)</text></g><!--link QuestApplicationService to Quest--><g id="link_QuestApplicationService_Quest"><path codeLine="50" d="M847.18,327.75 C872.49,358.87 904.0943,397.7151 931.0543,430.8651 " fill="none" id="QuestApplicationService-to-Quest" style="stroke:#181818;stroke-width:1.0;"/><polygon fill="#181818" points="934.84,435.52,932.2647,426.0138,931.6852,431.6409,926.0581,431.0614,934.84,435.52" style="stroke:#181818;stroke-width:1.0;"/><text fill="#000000" font-family="sans-serif" font-size="13" lengthAdjust="spacing" textLength="26" x="890.73" y="381.4984">&#20351;&#29992;</text></g><!--reverse link QuestRepository to FireStoreQuestRepository--><g id="link_QuestRepository_FireStoreQuestRepository"><path codeLine="77" d="M747.4478,540.8899 C766.0478,572.5499 782.87,601.18 801.52,632.91 " fill="none" id="QuestRepository-backto-FireStoreQuestRepository" style="stroke:#181818;stroke-width:1.0;"/><polygon fill="none" points="738.33,525.37,742.2745,543.9291,752.6211,537.8506,738.33,525.37" style="stroke:#181818;stroke-width:1.0;"/><text fill="#000000" font-family="sans-serif" font-size="13" lengthAdjust="spacing" textLength="26" x="771" y="578.9584">&#23455;&#35013;</text></g><!--reverse link Quest to FireStoreQuestRepository--><g id="link_Quest_FireStoreQuestRepository"><path codeLine="78" d="M931.8928,538.574 C907.4028,569.334 879.78,604.05 856.71,633.04 " fill="none" id="Quest-backto-FireStoreQuestRepository" style="stroke:#181818;stroke-width:1.0;"/><polygon fill="#181818" points="935.63,533.88,926.8949,538.4295,932.5157,537.7917,933.1536,543.4124,935.63,533.88" style="stroke:#181818;stroke-width:1.0;"/><text fill="#000000" font-family="sans-serif" font-size="13" lengthAdjust="spacing" textLength="26" x="909.42" y="578.9584">&#29983;&#25104;</text></g><!--SRC=[dLRTJXD15BxlKqpqHcFQ1o24H6Cm9aR5cdXfrdOA6yfktTrg398mEr4XQY1Q9OW4HS9V1IJ6u0_8mnpRmfMlu9cPTdUdsst1lTezSywPC-VxlZDRCdAZnZ0bPqeETQdb6PvfMsV8sMlcy8XtgLYcP3oL8lZaYeRhag4oTRsR8g0_YxwqI5ttZfaVfju0EfBcSu6ObaVk2z-h-S2QLj4NIwMYcPFxPAdpmCnHSjTLBw5hEXr9Tgzi5lFdpalBXAh6iZrA754ZiGjXLK4Gy3dWdy7V1_uL-5FW- -3l0L_3pzhk2h0rO3xupuD0O3lWBykeJV1te_xWVnEV_3NuFy1_zUVWi55P1pO7R3NOxlBj6xXKctbR-pqdbYPPe_BhU74PZKSVrnihFwN_Rs3pCEdBA6hbvI5IAJnHjFUPiCNflFtGIWyG8-nO9g65VGGXa6ldccq_V-gibmtFw2FgV5XJYnWHlnOlhZYKMXs88JB4Q63c8uQivvZMCB6CCHgnklOOzKR4GYQJYS5Sf8KGPR65rdODIh4ge0pwpwgj_i-Z3x0by1cmRU3F9CI70j33nVeB5WD8F2fMm3t9wc-_7AtE_3buNv-QLPR6tlhnmbD9XarW6_XoF5d17MkpK-3F05j0Xc2Ks9HLLM0N6eYl97saHGiGiWXCZSeIveiX40-Emf7WqfIMyXaiUsM7zalNWP1L4K7t4c9yWr2M9z6OXcWycS8telHDu8lWVmS-9HDh2WK-3VmZ-2jo3YnBtAjjKjNfLAsjJDTd5bhXtSV8zwF3IdTfdq2xWIBpzfXXDjrkqPBjcfxjFEeZ1TFAXxB-tumTfAsMMwg-QLgZJVKYsjGf69YfhHXDtUF6FTTpZ9mtePD6rZkawjL9qplkOh7OEJHn8eJ51LkqsMECwSw9jadHHYyPXOD3qFKD-6kI4ugqskne3nGNZDhn3V0D4IBi-B83d07_fAwbslRIqQSdFSP4HEya9c_icpPnfV4wpjlJ3LrTqZrwfoasrktNiWalvP6tv3l7K__Tn-FFoYuzqqO1TaDqLVWqjgR_xaztdz495UrqdmkX_Zlt6LlHMOsa_x4I5sgau1Z8ut9ES3WpQ3eqYnuq9b-5QUg4_YHTBiMKsvhsWNBrPAZWEoEcHxDZzYXjKaAH976N_ZQ3_ljsEZt_fue3YYKL6RasUYj7CJ0fLHif4PBZTpZZg-6F09zlARagRYbCxl-Id-AAgFCdjG-xshqH8s9aQIdmJs2dTibqlKCcKly0]--></g></svg>